<svg width="10" height="3" viewBox="0 0 10 3" fill="none" xmlns="http://www.w3.org/2000/svg">
<path d="M0.447266 1.33008C0.447266 1.11589 0.513346 0.935872 0.645508 0.790039C0.782227 0.639648 0.97819 0.564453 1.2334 0.564453C1.48861 0.564453 1.68229 0.639648 1.81445 0.790039C1.95117 0.935872 2.01953 1.11589 2.01953 1.33008C2.01953 1.53971 1.95117 1.71745 1.81445 1.86328C1.68229 2.00911 1.48861 2.08203 1.2334 2.08203C0.97819 2.08203 0.782227 2.00911 0.645508 1.86328C0.513346 1.71745 0.447266 1.53971 0.447266 1.33008ZM4.13867 1.33008C4.13867 1.11589 4.20475 0.935872 4.33691 0.790039C4.47363 0.639648 4.6696 0.564453 4.9248 0.564453C5.18001 0.564453 5.3737 0.639648 5.50586 0.790039C5.64258 0.935872 5.71094 1.11589 5.71094 1.33008C5.71094 1.53971 5.64258 1.71745 5.50586 1.86328C5.3737 2.00911 5.18001 2.08203 4.9248 2.08203C4.6696 2.08203 4.47363 2.00911 4.33691 1.86328C4.20475 1.71745 4.13867 1.53971 4.13867 1.33008ZM7.83008 1.33008C7.83008 1.11589 7.89616 0.935872 8.02832 0.790039C8.16504 0.639648 8.361 0.564453 8.61621 0.564453C8.87142 0.564453 9.0651 0.639648 9.19727 0.790039C9.33398 0.935872 9.40234 1.11589 9.40234 1.33008C9.40234 1.53971 9.33398 1.71745 9.19727 1.86328C9.0651 2.00911 8.87142 2.08203 8.61621 2.08203C8.361 2.08203 8.16504 2.00911 8.02832 1.86328C7.89616 1.71745 7.83008 1.53971 7.83008 1.33008Z" fill="#3C3C43" fill-opacity="0.66"/>
</svg>
