<svg width="96" height="13" viewBox="0 0 96 13" fill="none" xmlns="http://www.w3.org/2000/svg">
<path d="M2.02148 1.33594H3.99902L6.5625 8.96045L9.11865 1.33594H11.0962L7.36084 12H5.75684L2.02148 1.33594ZM0.878906 1.33594H2.89307L3.2666 9.23877V12H0.878906V1.33594ZM10.2246 1.33594H12.2461V12H9.85107V9.23877L10.2246 1.33594ZM13.5718 8.11816V7.96436C13.5718 7.3833 13.6548 6.84863 13.8208 6.36035C13.9868 5.86719 14.231 5.43994 14.5532 5.07861C14.8755 4.71729 15.271 4.43652 15.7397 4.23633C16.2085 4.03125 16.7456 3.92871 17.3511 3.92871C17.9663 3.92871 18.5083 4.03125 18.9771 4.23633C19.4507 4.43652 19.8486 4.71729 20.1709 5.07861C20.4932 5.43994 20.7373 5.86719 20.9033 6.36035C21.0693 6.84863 21.1523 7.3833 21.1523 7.96436V8.11816C21.1523 8.69434 21.0693 9.229 20.9033 9.72217C20.7373 10.2104 20.4932 10.6377 20.1709 11.0039C19.8486 11.3652 19.4531 11.646 18.9844 11.8462C18.5156 12.0464 17.9761 12.1465 17.3657 12.1465C16.7603 12.1465 16.2207 12.0464 15.7471 11.8462C15.2734 11.646 14.8755 11.3652 14.5532 11.0039C14.231 10.6377 13.9868 10.2104 13.8208 9.72217C13.6548 9.229 13.5718 8.69434 13.5718 8.11816ZM15.8643 7.96436V8.11816C15.8643 8.43066 15.8887 8.72363 15.9375 8.99707C15.9912 9.27051 16.0767 9.50977 16.1938 9.71484C16.311 9.91992 16.4648 10.0811 16.6553 10.1982C16.8506 10.3105 17.0874 10.3667 17.3657 10.3667C17.644 10.3667 17.8784 10.3105 18.0688 10.1982C18.2593 10.0811 18.4131 9.91992 18.5303 9.71484C18.6475 9.50977 18.7305 9.27051 18.7793 8.99707C18.833 8.72363 18.8599 8.43066 18.8599 8.11816V7.96436C18.8599 7.65674 18.833 7.36865 18.7793 7.1001C18.7305 6.82666 18.6475 6.58496 18.5303 6.375C18.4131 6.16504 18.2568 6.00146 18.0615 5.88428C17.8711 5.76709 17.6343 5.7085 17.3511 5.7085C17.0776 5.7085 16.8457 5.76709 16.6553 5.88428C16.4648 6.00146 16.311 6.16504 16.1938 6.375C16.0767 6.58496 15.9912 6.82666 15.9375 7.1001C15.8887 7.36865 15.8643 7.65674 15.8643 7.96436ZM25.6641 10.3667C25.9082 10.3667 26.1206 10.3203 26.3013 10.2275C26.4819 10.1348 26.6211 10.0054 26.7188 9.83936C26.8213 9.66846 26.8726 9.46338 26.8726 9.22412H29.0259C29.0259 9.80029 28.877 10.3081 28.5791 10.7476C28.2861 11.187 27.8906 11.5312 27.3926 11.7803C26.8945 12.0244 26.333 12.1465 25.708 12.1465C25.0928 12.1465 24.5557 12.0464 24.0967 11.8462C23.6377 11.6411 23.2544 11.3555 22.9468 10.9893C22.6392 10.623 22.4072 10.1982 22.251 9.71484C22.0996 9.22656 22.0239 8.69922 22.0239 8.13281V7.94238C22.0239 7.38086 22.0996 6.85596 22.251 6.36768C22.4072 5.87939 22.6392 5.45215 22.9468 5.08594C23.2544 4.71973 23.6353 4.43652 24.0894 4.23633C24.5483 4.03125 25.0854 3.92871 25.7007 3.92871C26.3501 3.92871 26.9238 4.05322 27.4219 4.30225C27.9248 4.55127 28.3179 4.91016 28.6011 5.37891C28.8843 5.84277 29.0259 6.40186 29.0259 7.05615H26.8726C26.8726 6.80225 26.8262 6.5752 26.7334 6.375C26.6455 6.16992 26.5088 6.00879 26.3232 5.8916C26.1426 5.76953 25.918 5.7085 25.6494 5.7085C25.3711 5.7085 25.1416 5.76953 24.9609 5.8916C24.7852 6.00879 24.6509 6.17236 24.5581 6.38232C24.4653 6.59229 24.4019 6.83154 24.3677 7.1001C24.3335 7.36377 24.3164 7.64453 24.3164 7.94238V8.13281C24.3164 8.43555 24.3335 8.72363 24.3677 8.99707C24.4019 9.26562 24.4653 9.50244 24.5581 9.70752C24.6558 9.9126 24.7925 10.0737 24.9683 10.1909C25.144 10.3081 25.376 10.3667 25.6641 10.3667ZM32.4609 0.742676V12H30.1685V0.742676H32.4609ZM37.4927 4.0752L34.043 8.05957L32.2192 9.89062L31.3037 8.34521L32.7832 6.43359L34.7388 4.0752H37.4927ZM35.0757 12L32.8418 8.35986L34.4824 7.07812L37.6978 12H35.0757ZM43.9233 9.1875C43.9233 9.00684 43.8965 8.8457 43.8428 8.7041C43.7891 8.55762 43.6914 8.42334 43.5498 8.30127C43.4082 8.1792 43.208 8.05713 42.9492 7.93506C42.6904 7.80811 42.3511 7.67871 41.9312 7.54688C41.4526 7.39062 40.9961 7.21484 40.5615 7.01953C40.1318 6.81934 39.7485 6.5874 39.4116 6.32373C39.0747 6.06006 38.8086 5.75244 38.6133 5.40088C38.4229 5.04932 38.3276 4.63916 38.3276 4.17041C38.3276 3.71631 38.4277 3.30615 38.6279 2.93994C38.8281 2.57373 39.1089 2.26123 39.4702 2.00244C39.8315 1.73877 40.2563 1.53857 40.7446 1.40186C41.2329 1.26025 41.77 1.18945 42.356 1.18945C43.1372 1.18945 43.8232 1.32861 44.4141 1.60693C45.0098 1.88037 45.4736 2.26611 45.8057 2.76416C46.1377 3.25732 46.3037 3.83105 46.3037 4.48535H43.9307C43.9307 4.19727 43.8696 3.94336 43.7476 3.72363C43.6304 3.49902 43.4497 3.32324 43.2056 3.19629C42.9663 3.06934 42.666 3.00586 42.3047 3.00586C41.9531 3.00586 41.6577 3.05957 41.4185 3.16699C41.1841 3.26953 41.0059 3.41113 40.8838 3.5918C40.7666 3.77246 40.708 3.97021 40.708 4.18506C40.708 4.35596 40.752 4.51221 40.8398 4.65381C40.9326 4.79053 41.0645 4.91992 41.2354 5.04199C41.4111 5.15918 41.626 5.27148 41.8799 5.37891C42.1338 5.48633 42.4243 5.58887 42.7515 5.68652C43.3228 5.86719 43.8281 6.06738 44.2676 6.28711C44.7119 6.50684 45.0854 6.75586 45.3882 7.03418C45.6909 7.3125 45.918 7.62744 46.0693 7.979C46.2256 8.33057 46.3037 8.72852 46.3037 9.17285C46.3037 9.64648 46.2109 10.0664 46.0254 10.4326C45.8447 10.7988 45.5811 11.1113 45.2344 11.3701C44.8926 11.624 44.4824 11.8169 44.0039 11.9487C43.5254 12.0806 42.9907 12.1465 42.3999 12.1465C41.8628 12.1465 41.333 12.0781 40.8105 11.9414C40.2881 11.7998 39.8145 11.585 39.3896 11.2969C38.9697 11.0088 38.6328 10.6426 38.3789 10.1982C38.1299 9.74902 38.0054 9.2168 38.0054 8.60156H40.3931C40.3931 8.92383 40.4395 9.19727 40.5322 9.42188C40.625 9.6416 40.7568 9.81982 40.9277 9.95654C41.1035 10.0933 41.3159 10.1909 41.5649 10.2495C41.814 10.3081 42.0923 10.3374 42.3999 10.3374C42.7563 10.3374 43.0444 10.2886 43.2642 10.1909C43.4888 10.0884 43.6548 9.94922 43.7622 9.77344C43.8696 9.59766 43.9233 9.40234 43.9233 9.1875ZM51.3281 12.1465C50.6982 12.1465 50.1343 12.0464 49.6362 11.8462C49.1382 11.646 48.7158 11.3701 48.3691 11.0186C48.0273 10.6621 47.7661 10.252 47.5854 9.78809C47.4048 9.32422 47.3145 8.82861 47.3145 8.30127V8.02295C47.3145 7.43213 47.3975 6.8877 47.5635 6.38965C47.7295 5.8916 47.9712 5.45947 48.2886 5.09326C48.6108 4.72217 49.0063 4.43652 49.4751 4.23633C49.9438 4.03125 50.4785 3.92871 51.0791 3.92871C51.6406 3.92871 52.1411 4.02148 52.5806 4.20703C53.02 4.3877 53.3911 4.64893 53.6938 4.99072C53.9966 5.32764 54.2261 5.73535 54.3823 6.21387C54.5435 6.6875 54.624 7.21973 54.624 7.81055V8.74805H48.2373V7.27588H52.3828V7.1001C52.3828 6.82178 52.3315 6.57764 52.229 6.36768C52.1313 6.15771 51.9849 5.99658 51.7896 5.88428C51.5991 5.76709 51.3574 5.7085 51.0645 5.7085C50.7861 5.7085 50.5542 5.76709 50.3687 5.88428C50.1831 6.00146 50.0342 6.16748 49.9219 6.38232C49.8145 6.59229 49.7363 6.83887 49.6875 7.12207C49.6387 7.40039 49.6143 7.70068 49.6143 8.02295V8.30127C49.6143 8.60889 49.6558 8.88965 49.7388 9.14355C49.8218 9.39746 49.9438 9.61475 50.105 9.79541C50.2661 9.97607 50.4614 10.1177 50.6909 10.2202C50.9204 10.3228 51.1816 10.374 51.4746 10.374C51.8359 10.374 52.1802 10.3057 52.5073 10.1689C52.8345 10.0273 53.1177 9.80762 53.3569 9.50977L54.4263 10.7329C54.2651 10.9673 54.0381 11.1943 53.7451 11.4141C53.457 11.6289 53.1104 11.8047 52.7051 11.9414C52.2998 12.0781 51.8408 12.1465 51.3281 12.1465ZM58.0298 5.9209V12H55.7446V4.0752H57.8906L58.0298 5.9209ZM60.3955 4.0166L60.3589 6.14795C60.2612 6.1333 60.1343 6.12109 59.978 6.11133C59.8218 6.09668 59.6875 6.08936 59.5752 6.08936C59.2822 6.08936 59.0283 6.12598 58.8135 6.19922C58.6035 6.26758 58.4277 6.37012 58.2861 6.50684C58.1494 6.64355 58.0469 6.81445 57.9785 7.01953C57.9102 7.21973 57.876 7.45166 57.876 7.71533L57.4438 7.50293C57.4438 6.98047 57.4951 6.50195 57.5977 6.06738C57.7002 5.63281 57.8491 5.25684 58.0444 4.93945C58.2397 4.61719 58.479 4.36816 58.7622 4.19238C59.0454 4.0166 59.3677 3.92871 59.729 3.92871C59.8462 3.92871 59.9658 3.93604 60.0879 3.95068C60.21 3.96533 60.3125 3.9873 60.3955 4.0166ZM64.2407 10.3813L65.896 4.0752H68.2983L65.6689 12H64.2261L64.2407 10.3813ZM63.1714 4.0752L64.8193 10.3887L64.834 12H63.3911L60.7617 4.0752H63.1714ZM71.5503 4.0752V12H69.2578V4.0752H71.5503ZM69.1187 2.02441C69.1187 1.69238 69.2358 1.42139 69.4702 1.21143C69.7046 0.996582 70.0122 0.88916 70.3931 0.88916C70.7739 0.88916 71.0815 0.996582 71.3159 1.21143C71.5552 1.42139 71.6748 1.69238 71.6748 2.02441C71.6748 2.35156 71.5552 2.62256 71.3159 2.8374C71.0815 3.04736 70.7739 3.15234 70.3931 3.15234C70.0122 3.15234 69.7046 3.04736 69.4702 2.8374C69.2358 2.62256 69.1187 2.35156 69.1187 2.02441ZM76.5088 10.3667C76.7529 10.3667 76.9653 10.3203 77.146 10.2275C77.3267 10.1348 77.4658 10.0054 77.5635 9.83936C77.666 9.66846 77.7173 9.46338 77.7173 9.22412H79.8706C79.8706 9.80029 79.7217 10.3081 79.4238 10.7476C79.1309 11.187 78.7354 11.5312 78.2373 11.7803C77.7393 12.0244 77.1777 12.1465 76.5527 12.1465C75.9375 12.1465 75.4004 12.0464 74.9414 11.8462C74.4824 11.6411 74.0991 11.3555 73.7915 10.9893C73.4839 10.623 73.252 10.1982 73.0957 9.71484C72.9443 9.22656 72.8687 8.69922 72.8687 8.13281V7.94238C72.8687 7.38086 72.9443 6.85596 73.0957 6.36768C73.252 5.87939 73.4839 5.45215 73.7915 5.08594C74.0991 4.71973 74.48 4.43652 74.9341 4.23633C75.3931 4.03125 75.9302 3.92871 76.5454 3.92871C77.1948 3.92871 77.7686 4.05322 78.2666 4.30225C78.7695 4.55127 79.1626 4.91016 79.4458 5.37891C79.729 5.84277 79.8706 6.40186 79.8706 7.05615H77.7173C77.7173 6.80225 77.6709 6.5752 77.5781 6.375C77.4902 6.16992 77.3535 6.00879 77.168 5.8916C76.9873 5.76953 76.7627 5.7085 76.4941 5.7085C76.2158 5.7085 75.9863 5.76953 75.8057 5.8916C75.6299 6.00879 75.4956 6.17236 75.4028 6.38232C75.3101 6.59229 75.2466 6.83154 75.2124 7.1001C75.1782 7.36377 75.1611 7.64453 75.1611 7.94238V8.13281C75.1611 8.43555 75.1782 8.72363 75.2124 8.99707C75.2466 9.26562 75.3101 9.50244 75.4028 9.70752C75.5005 9.9126 75.6372 10.0737 75.813 10.1909C75.9888 10.3081 76.2207 10.3667 76.5088 10.3667ZM84.7412 12.1465C84.1113 12.1465 83.5474 12.0464 83.0493 11.8462C82.5513 11.646 82.1289 11.3701 81.7822 11.0186C81.4404 10.6621 81.1792 10.252 80.9985 9.78809C80.8179 9.32422 80.7275 8.82861 80.7275 8.30127V8.02295C80.7275 7.43213 80.8105 6.8877 80.9766 6.38965C81.1426 5.8916 81.3843 5.45947 81.7017 5.09326C82.0239 4.72217 82.4194 4.43652 82.8882 4.23633C83.3569 4.03125 83.8916 3.92871 84.4922 3.92871C85.0537 3.92871 85.5542 4.02148 85.9937 4.20703C86.4331 4.3877 86.8042 4.64893 87.1069 4.99072C87.4097 5.32764 87.6392 5.73535 87.7954 6.21387C87.9565 6.6875 88.0371 7.21973 88.0371 7.81055V8.74805H81.6504V7.27588H85.7959V7.1001C85.7959 6.82178 85.7446 6.57764 85.6421 6.36768C85.5444 6.15771 85.3979 5.99658 85.2026 5.88428C85.0122 5.76709 84.7705 5.7085 84.4775 5.7085C84.1992 5.7085 83.9673 5.76709 83.7817 5.88428C83.5962 6.00146 83.4473 6.16748 83.335 6.38232C83.2275 6.59229 83.1494 6.83887 83.1006 7.12207C83.0518 7.40039 83.0273 7.70068 83.0273 8.02295V8.30127C83.0273 8.60889 83.0688 8.88965 83.1519 9.14355C83.2349 9.39746 83.3569 9.61475 83.5181 9.79541C83.6792 9.97607 83.8745 10.1177 84.104 10.2202C84.3335 10.3228 84.5947 10.374 84.8877 10.374C85.249 10.374 85.5933 10.3057 85.9204 10.1689C86.2476 10.0273 86.5308 9.80762 86.77 9.50977L87.8394 10.7329C87.6782 10.9673 87.4512 11.1943 87.1582 11.4141C86.8701 11.6289 86.5234 11.8047 86.1182 11.9414C85.7129 12.0781 85.2539 12.1465 84.7412 12.1465ZM93.3691 9.79541C93.3691 9.64893 93.3228 9.51953 93.23 9.40723C93.1421 9.29492 92.981 9.19238 92.7466 9.09961C92.5171 9.00684 92.1924 8.91406 91.7725 8.82129C91.377 8.73828 91.0083 8.63086 90.6665 8.49902C90.3247 8.3623 90.0269 8.19873 89.7729 8.0083C89.519 7.81299 89.3213 7.5835 89.1797 7.31982C89.0381 7.05127 88.9673 6.74609 88.9673 6.4043C88.9673 6.07227 89.0381 5.75732 89.1797 5.45947C89.3262 5.16162 89.5361 4.89795 89.8096 4.66846C90.0879 4.43896 90.4248 4.2583 90.8203 4.12646C91.2207 3.99463 91.6748 3.92871 92.1826 3.92871C92.8809 3.92871 93.4839 4.03857 93.9917 4.2583C94.4995 4.47314 94.8901 4.77588 95.1636 5.1665C95.437 5.55225 95.5737 5.99414 95.5737 6.49219H93.2886C93.2886 6.28711 93.2495 6.10889 93.1714 5.95752C93.0933 5.80615 92.9736 5.68896 92.8125 5.60596C92.6514 5.51807 92.439 5.47412 92.1753 5.47412C91.9702 5.47412 91.7896 5.51074 91.6333 5.58398C91.4819 5.65234 91.3623 5.74756 91.2744 5.86963C91.1914 5.9917 91.1499 6.1333 91.1499 6.29443C91.1499 6.40674 91.1743 6.50928 91.2231 6.60205C91.2769 6.68994 91.3574 6.77295 91.4648 6.85107C91.5771 6.92432 91.7212 6.99023 91.897 7.04883C92.0776 7.10742 92.2974 7.16357 92.5562 7.21729C93.1079 7.31982 93.6108 7.46387 94.0649 7.64941C94.5239 7.83496 94.8901 8.09131 95.1636 8.41846C95.4419 8.74561 95.5811 9.17773 95.5811 9.71484C95.5811 10.0664 95.5005 10.3887 95.3394 10.6816C95.1831 10.9746 94.9561 11.231 94.6582 11.4507C94.3604 11.6704 94.0039 11.8413 93.5889 11.9634C93.1738 12.0854 92.7051 12.1465 92.1826 12.1465C91.4355 12.1465 90.8032 12.0122 90.2856 11.7437C89.7681 11.4751 89.3774 11.1382 89.1138 10.7329C88.855 10.3228 88.7256 9.90283 88.7256 9.47314H90.8716C90.8813 9.73682 90.9473 9.95166 91.0693 10.1177C91.1963 10.2837 91.3599 10.4058 91.5601 10.4839C91.7603 10.5571 91.9849 10.5938 92.2339 10.5938C92.4829 10.5938 92.6904 10.5596 92.8564 10.4912C93.0225 10.4229 93.1494 10.3301 93.2373 10.2129C93.3252 10.0908 93.3691 9.95166 93.3691 9.79541Z" fill="black"/>
</svg>
